# xmcd
#
# Track frame offsets: 
#        150
#        25122
#        41071
#        66364
#        85943
#        104957
#        124207
#        143730
#        163615
#        176928
#        189664
#        192144
#        209443
#        227576
#        232245
#
# Disc length: 3325 seconds
#
# Revision: 2
# Processed by: cddbd v1.5.1PL0 Copyright (c) Steve Scherf et al.
# Submitted via: ExactAudioCopy v0.95b1
#
DISCID=e20cfb0f
DTITLE=Ногу Свело - Идем На Восток
DYEAR=2005
DGENRE=Rock
TTITLE0=Эй, Мутант!
TTITLE1=Идем На Восток!
TTITLE2=Я - Не Последний Герой! (vers. 2005)
TTITLE3=Твоя Звезда
TTITLE4=Черная - Рыжая
TTITLE5=Вся Раздета
TTITLE6=Мясо В Зубах
TTITLE7=Апрель
TTITLE8=Мадам
TTITLE9=Клавесин
TTITLE10=Шах!
TTITLE11=Горная Лирическая
TTITLE12=Рекламное Место Здается!
TTITLE13=СССР
TTITLE14=Идем На Восток! (Dj Karas @ Dj Flexor)
EXTD=
EXTT0=
EXTT1=
EXTT2=
EXTT3=
EXTT4=
EXTT5=
EXTT6=
EXTT7=
EXTT8=
EXTT9=
EXTT10=
EXTT11=
EXTT12=
EXTT13=
EXTT14=
PLAYORDER=
